<mxfile host="app.diagrams.net" modified="2023-01-13T13:08:27.272Z" agent="5.0 (Windows NT 10.0; Win64; x64) AppleWebKit/537.36 (KHTML, like Gecko) Chrome/109.0.0.0 Safari/537.36" etag="rT8640StHAgQCnKbJbzj" version="20.8.5" type="github">
  <diagram name="Page-1" id="e7e014a7-5840-1c2e-5031-d8a46d1fe8dd">
    <mxGraphModel dx="989" dy="549" grid="1" gridSize="10" guides="1" tooltips="1" connect="1" arrows="1" fold="1" page="1" pageScale="1" pageWidth="1169" pageHeight="826" background="none" math="0" shadow="0">
      <root>
        <mxCell id="0" />
        <mxCell id="1" parent="0" />
        <mxCell id="5QgJLx8mdaJcXq7qZHmc-52" style="edgeStyle=orthogonalEdgeStyle;rounded=0;orthogonalLoop=1;jettySize=auto;html=1;exitX=0.5;exitY=0;exitDx=0;exitDy=0;endArrow=diamondThin;endFill=1;entryX=0.5;entryY=1;entryDx=0;entryDy=0;" edge="1" parent="1" source="5QgJLx8mdaJcXq7qZHmc-42" target="5QgJLx8mdaJcXq7qZHmc-46">
          <mxGeometry relative="1" as="geometry">
            <mxPoint x="109.03999999999996" y="197.01200000000006" as="targetPoint" />
          </mxGeometry>
        </mxCell>
        <mxCell id="5QgJLx8mdaJcXq7qZHmc-42" value="Kamer" style="swimlane;fontStyle=1;align=center;verticalAlign=top;childLayout=stackLayout;horizontal=1;startSize=26;horizontalStack=0;resizeParent=1;resizeParentMax=0;resizeLast=0;collapsible=1;marginBottom=0;" vertex="1" parent="1">
          <mxGeometry x="80" y="301" width="150" height="164" as="geometry" />
        </mxCell>
        <mxCell id="5QgJLx8mdaJcXq7qZHmc-89" value="Kamer Soort: string" style="text;strokeColor=none;fillColor=none;align=left;verticalAlign=top;spacingLeft=4;spacingRight=4;overflow=hidden;rotatable=0;points=[[0,0.5],[1,0.5]];portConstraint=eastwest;" vertex="1" parent="5QgJLx8mdaJcXq7qZHmc-42">
          <mxGeometry y="26" width="150" height="26" as="geometry" />
        </mxCell>
        <mxCell id="5QgJLx8mdaJcXq7qZHmc-97" value="Prijs: float" style="text;strokeColor=none;fillColor=none;align=left;verticalAlign=top;spacingLeft=4;spacingRight=4;overflow=hidden;rotatable=0;points=[[0,0.5],[1,0.5]];portConstraint=eastwest;" vertex="1" parent="5QgJLx8mdaJcXq7qZHmc-42">
          <mxGeometry y="52" width="150" height="26" as="geometry" />
        </mxCell>
        <mxCell id="5QgJLx8mdaJcXq7qZHmc-109" value="Beschrijving: string" style="text;strokeColor=none;fillColor=none;align=left;verticalAlign=top;spacingLeft=4;spacingRight=4;overflow=hidden;rotatable=0;points=[[0,0.5],[1,0.5]];portConstraint=eastwest;" vertex="1" parent="5QgJLx8mdaJcXq7qZHmc-42">
          <mxGeometry y="78" width="150" height="26" as="geometry" />
        </mxCell>
        <mxCell id="5QgJLx8mdaJcXq7qZHmc-108" value="Photo:" style="text;strokeColor=none;fillColor=none;align=left;verticalAlign=top;spacingLeft=4;spacingRight=4;overflow=hidden;rotatable=0;points=[[0,0.5],[1,0.5]];portConstraint=eastwest;" vertex="1" parent="5QgJLx8mdaJcXq7qZHmc-42">
          <mxGeometry y="104" width="150" height="26" as="geometry" />
        </mxCell>
        <mxCell id="5QgJLx8mdaJcXq7qZHmc-43" value="Kamernummer: int" style="text;strokeColor=none;fillColor=none;align=left;verticalAlign=top;spacingLeft=4;spacingRight=4;overflow=hidden;rotatable=0;points=[[0,0.5],[1,0.5]];portConstraint=eastwest;" vertex="1" parent="5QgJLx8mdaJcXq7qZHmc-42">
          <mxGeometry y="130" width="150" height="26" as="geometry" />
        </mxCell>
        <mxCell id="5QgJLx8mdaJcXq7qZHmc-44" value="" style="line;strokeWidth=1;fillColor=none;align=left;verticalAlign=middle;spacingTop=-1;spacingLeft=3;spacingRight=3;rotatable=0;labelPosition=right;points=[];portConstraint=eastwest;strokeColor=inherit;" vertex="1" parent="5QgJLx8mdaJcXq7qZHmc-42">
          <mxGeometry y="156" width="150" height="8" as="geometry" />
        </mxCell>
        <mxCell id="5QgJLx8mdaJcXq7qZHmc-46" value="Hotel&#xa;" style="swimlane;fontStyle=1;align=center;verticalAlign=top;childLayout=stackLayout;horizontal=1;startSize=26;horizontalStack=0;resizeParent=1;resizeParentMax=0;resizeLast=0;collapsible=1;marginBottom=0;" vertex="1" parent="1">
          <mxGeometry x="30" y="60" width="160" height="112" as="geometry" />
        </mxCell>
        <mxCell id="5QgJLx8mdaJcXq7qZHmc-139" value="+ Aantal Kamers: int" style="text;strokeColor=none;fillColor=none;align=left;verticalAlign=top;spacingLeft=4;spacingRight=4;overflow=hidden;rotatable=0;points=[[0,0.5],[1,0.5]];portConstraint=eastwest;" vertex="1" parent="5QgJLx8mdaJcXq7qZHmc-46">
          <mxGeometry y="26" width="160" height="26" as="geometry" />
        </mxCell>
        <mxCell id="5QgJLx8mdaJcXq7qZHmc-141" value="+ Geboekte Kamers: int" style="text;strokeColor=none;fillColor=none;align=left;verticalAlign=top;spacingLeft=4;spacingRight=4;overflow=hidden;rotatable=0;points=[[0,0.5],[1,0.5]];portConstraint=eastwest;" vertex="1" parent="5QgJLx8mdaJcXq7qZHmc-46">
          <mxGeometry y="52" width="160" height="26" as="geometry" />
        </mxCell>
        <mxCell id="5QgJLx8mdaJcXq7qZHmc-47" value="+ Locatie: string&#xa;" style="text;strokeColor=none;fillColor=none;align=left;verticalAlign=top;spacingLeft=4;spacingRight=4;overflow=hidden;rotatable=0;points=[[0,0.5],[1,0.5]];portConstraint=eastwest;" vertex="1" parent="5QgJLx8mdaJcXq7qZHmc-46">
          <mxGeometry y="78" width="160" height="26" as="geometry" />
        </mxCell>
        <mxCell id="5QgJLx8mdaJcXq7qZHmc-48" value="" style="line;strokeWidth=1;fillColor=none;align=left;verticalAlign=middle;spacingTop=-1;spacingLeft=3;spacingRight=3;rotatable=0;labelPosition=right;points=[];portConstraint=eastwest;strokeColor=inherit;" vertex="1" parent="5QgJLx8mdaJcXq7qZHmc-46">
          <mxGeometry y="104" width="160" height="8" as="geometry" />
        </mxCell>
        <mxCell id="5QgJLx8mdaJcXq7qZHmc-149" style="edgeStyle=orthogonalEdgeStyle;rounded=0;orthogonalLoop=1;jettySize=auto;html=1;entryX=1.011;entryY=0.692;entryDx=0;entryDy=0;entryPerimeter=0;startArrow=none;startFill=0;endArrow=diamondThin;endFill=0;" edge="1" parent="1" source="5QgJLx8mdaJcXq7qZHmc-55" target="5QgJLx8mdaJcXq7qZHmc-97">
          <mxGeometry relative="1" as="geometry" />
        </mxCell>
        <mxCell id="5QgJLx8mdaJcXq7qZHmc-55" value="Gast" style="swimlane;fontStyle=1;align=center;verticalAlign=top;childLayout=stackLayout;horizontal=1;startSize=26;horizontalStack=0;resizeParent=1;resizeParentMax=0;resizeLast=0;collapsible=1;marginBottom=0;" vertex="1" parent="1">
          <mxGeometry x="330" y="301" width="160" height="138" as="geometry" />
        </mxCell>
        <mxCell id="5QgJLx8mdaJcXq7qZHmc-88" value="+ Woonplaats: string" style="text;strokeColor=none;fillColor=none;align=left;verticalAlign=top;spacingLeft=4;spacingRight=4;overflow=hidden;rotatable=0;points=[[0,0.5],[1,0.5]];portConstraint=eastwest;" vertex="1" parent="5QgJLx8mdaJcXq7qZHmc-55">
          <mxGeometry y="26" width="160" height="26" as="geometry" />
        </mxCell>
        <mxCell id="5QgJLx8mdaJcXq7qZHmc-142" value="+ Email Adres: string" style="text;strokeColor=none;fillColor=none;align=left;verticalAlign=top;spacingLeft=4;spacingRight=4;overflow=hidden;rotatable=0;points=[[0,0.5],[1,0.5]];portConstraint=eastwest;" vertex="1" parent="5QgJLx8mdaJcXq7qZHmc-55">
          <mxGeometry y="52" width="160" height="26" as="geometry" />
        </mxCell>
        <mxCell id="5QgJLx8mdaJcXq7qZHmc-143" value="+ Telefoonnummer: int" style="text;strokeColor=none;fillColor=none;align=left;verticalAlign=top;spacingLeft=4;spacingRight=4;overflow=hidden;rotatable=0;points=[[0,0.5],[1,0.5]];portConstraint=eastwest;" vertex="1" parent="5QgJLx8mdaJcXq7qZHmc-55">
          <mxGeometry y="78" width="160" height="26" as="geometry" />
        </mxCell>
        <mxCell id="5QgJLx8mdaJcXq7qZHmc-56" value="+ Naam: string&#xa;" style="text;strokeColor=none;fillColor=none;align=left;verticalAlign=top;spacingLeft=4;spacingRight=4;overflow=hidden;rotatable=0;points=[[0,0.5],[1,0.5]];portConstraint=eastwest;" vertex="1" parent="5QgJLx8mdaJcXq7qZHmc-55">
          <mxGeometry y="104" width="160" height="26" as="geometry" />
        </mxCell>
        <mxCell id="5QgJLx8mdaJcXq7qZHmc-57" value="" style="line;strokeWidth=1;fillColor=none;align=left;verticalAlign=middle;spacingTop=-1;spacingLeft=3;spacingRight=3;rotatable=0;labelPosition=right;points=[];portConstraint=eastwest;strokeColor=inherit;" vertex="1" parent="5QgJLx8mdaJcXq7qZHmc-55">
          <mxGeometry y="130" width="160" height="8" as="geometry" />
        </mxCell>
        <mxCell id="5QgJLx8mdaJcXq7qZHmc-150" style="edgeStyle=orthogonalEdgeStyle;rounded=0;orthogonalLoop=1;jettySize=auto;html=1;entryX=1.015;entryY=0.684;entryDx=0;entryDy=0;entryPerimeter=0;startArrow=none;startFill=0;endArrow=block;endFill=0;" edge="1" parent="1" source="5QgJLx8mdaJcXq7qZHmc-59" target="5QgJLx8mdaJcXq7qZHmc-88">
          <mxGeometry relative="1" as="geometry" />
        </mxCell>
        <mxCell id="5QgJLx8mdaJcXq7qZHmc-59" value="Vaste Gast" style="swimlane;fontStyle=1;align=center;verticalAlign=top;childLayout=stackLayout;horizontal=1;startSize=26;horizontalStack=0;resizeParent=1;resizeParentMax=0;resizeLast=0;collapsible=1;marginBottom=0;" vertex="1" parent="1">
          <mxGeometry x="570" y="301" width="160" height="86" as="geometry" />
        </mxCell>
        <mxCell id="5QgJLx8mdaJcXq7qZHmc-145" value="+ Username: string" style="text;strokeColor=none;fillColor=none;align=left;verticalAlign=top;spacingLeft=4;spacingRight=4;overflow=hidden;rotatable=0;points=[[0,0.5],[1,0.5]];portConstraint=eastwest;" vertex="1" parent="5QgJLx8mdaJcXq7qZHmc-59">
          <mxGeometry y="26" width="160" height="26" as="geometry" />
        </mxCell>
        <mxCell id="5QgJLx8mdaJcXq7qZHmc-147" value="+ Password: string" style="text;strokeColor=none;fillColor=none;align=left;verticalAlign=top;spacingLeft=4;spacingRight=4;overflow=hidden;rotatable=0;points=[[0,0.5],[1,0.5]];portConstraint=eastwest;" vertex="1" parent="5QgJLx8mdaJcXq7qZHmc-59">
          <mxGeometry y="52" width="160" height="26" as="geometry" />
        </mxCell>
        <mxCell id="5QgJLx8mdaJcXq7qZHmc-61" value="" style="line;strokeWidth=1;fillColor=none;align=left;verticalAlign=middle;spacingTop=-1;spacingLeft=3;spacingRight=3;rotatable=0;labelPosition=right;points=[];portConstraint=eastwest;strokeColor=inherit;" vertex="1" parent="5QgJLx8mdaJcXq7qZHmc-59">
          <mxGeometry y="78" width="160" height="8" as="geometry" />
        </mxCell>
        <mxCell id="5QgJLx8mdaJcXq7qZHmc-86" style="edgeStyle=orthogonalEdgeStyle;rounded=0;orthogonalLoop=1;jettySize=auto;html=1;endArrow=diamondThin;endFill=1;entryX=0.5;entryY=1;entryDx=0;entryDy=0;" edge="1" parent="1" source="5QgJLx8mdaJcXq7qZHmc-66" target="5QgJLx8mdaJcXq7qZHmc-59">
          <mxGeometry relative="1" as="geometry">
            <mxPoint x="650" y="410" as="targetPoint" />
            <Array as="points">
              <mxPoint x="650" y="420" />
              <mxPoint x="650" y="420" />
            </Array>
          </mxGeometry>
        </mxCell>
        <mxCell id="5QgJLx8mdaJcXq7qZHmc-66" value="Account" style="swimlane;fontStyle=1;align=center;verticalAlign=top;childLayout=stackLayout;horizontal=1;startSize=26;horizontalStack=0;resizeParent=1;resizeParentMax=0;resizeLast=0;collapsible=1;marginBottom=0;" vertex="1" parent="1">
          <mxGeometry x="570" y="440" width="160" height="86" as="geometry" />
        </mxCell>
        <mxCell id="5QgJLx8mdaJcXq7qZHmc-67" value="Punten: int" style="text;strokeColor=none;fillColor=none;align=left;verticalAlign=top;spacingLeft=4;spacingRight=4;overflow=hidden;rotatable=0;points=[[0,0.5],[1,0.5]];portConstraint=eastwest;" vertex="1" parent="5QgJLx8mdaJcXq7qZHmc-66">
          <mxGeometry y="26" width="160" height="26" as="geometry" />
        </mxCell>
        <mxCell id="5QgJLx8mdaJcXq7qZHmc-100" value="Geschiedenis: Object?" style="text;strokeColor=none;fillColor=none;align=left;verticalAlign=top;spacingLeft=4;spacingRight=4;overflow=hidden;rotatable=0;points=[[0,0.5],[1,0.5]];portConstraint=eastwest;" vertex="1" parent="5QgJLx8mdaJcXq7qZHmc-66">
          <mxGeometry y="52" width="160" height="26" as="geometry" />
        </mxCell>
        <mxCell id="5QgJLx8mdaJcXq7qZHmc-68" value="" style="line;strokeWidth=1;fillColor=none;align=left;verticalAlign=middle;spacingTop=-1;spacingLeft=3;spacingRight=3;rotatable=0;labelPosition=right;points=[];portConstraint=eastwest;strokeColor=inherit;" vertex="1" parent="5QgJLx8mdaJcXq7qZHmc-66">
          <mxGeometry y="78" width="160" height="8" as="geometry" />
        </mxCell>
        <mxCell id="5QgJLx8mdaJcXq7qZHmc-94" style="edgeStyle=orthogonalEdgeStyle;rounded=0;orthogonalLoop=1;jettySize=auto;html=1;entryX=0.5;entryY=0;entryDx=0;entryDy=0;endArrow=diamondThin;endFill=1;" edge="1" parent="1" source="5QgJLx8mdaJcXq7qZHmc-90" target="5QgJLx8mdaJcXq7qZHmc-55">
          <mxGeometry relative="1" as="geometry">
            <Array as="points">
              <mxPoint x="490" y="270" />
              <mxPoint x="410" y="270" />
            </Array>
          </mxGeometry>
        </mxCell>
        <mxCell id="5QgJLx8mdaJcXq7qZHmc-111" style="edgeStyle=orthogonalEdgeStyle;rounded=0;orthogonalLoop=1;jettySize=auto;html=1;endArrow=none;endFill=0;entryX=1;entryY=0.5;entryDx=0;entryDy=0;" edge="1" parent="1" source="5QgJLx8mdaJcXq7qZHmc-90" target="5QgJLx8mdaJcXq7qZHmc-67">
          <mxGeometry relative="1" as="geometry">
            <mxPoint x="740" y="450" as="targetPoint" />
            <Array as="points">
              <mxPoint x="530" y="220" />
              <mxPoint x="750" y="220" />
              <mxPoint x="750" y="452" />
              <mxPoint x="730" y="452" />
            </Array>
          </mxGeometry>
        </mxCell>
        <mxCell id="5QgJLx8mdaJcXq7qZHmc-135" style="edgeStyle=orthogonalEdgeStyle;rounded=0;orthogonalLoop=1;jettySize=auto;html=1;entryX=1;entryY=0.5;entryDx=0;entryDy=0;startArrow=none;startFill=0;endArrow=block;endFill=0;" edge="1" parent="1" source="5QgJLx8mdaJcXq7qZHmc-90" target="5QgJLx8mdaJcXq7qZHmc-131">
          <mxGeometry relative="1" as="geometry" />
        </mxCell>
        <mxCell id="5QgJLx8mdaJcXq7qZHmc-90" value="Boeking" style="swimlane;fontStyle=1;align=center;verticalAlign=top;childLayout=stackLayout;horizontal=1;startSize=26;horizontalStack=0;resizeParent=1;resizeParentMax=0;resizeLast=0;collapsible=1;marginBottom=0;" vertex="1" parent="1">
          <mxGeometry x="425" y="70" width="160" height="60" as="geometry" />
        </mxCell>
        <mxCell id="5QgJLx8mdaJcXq7qZHmc-110" value="Betaald: Boolean&#xa;" style="text;strokeColor=none;fillColor=none;align=left;verticalAlign=top;spacingLeft=4;spacingRight=4;overflow=hidden;rotatable=0;points=[[0,0.5],[1,0.5]];portConstraint=eastwest;" vertex="1" parent="5QgJLx8mdaJcXq7qZHmc-90">
          <mxGeometry y="26" width="160" height="26" as="geometry" />
        </mxCell>
        <mxCell id="5QgJLx8mdaJcXq7qZHmc-92" value="" style="line;strokeWidth=1;fillColor=none;align=left;verticalAlign=middle;spacingTop=-1;spacingLeft=3;spacingRight=3;rotatable=0;labelPosition=right;points=[];portConstraint=eastwest;strokeColor=inherit;" vertex="1" parent="5QgJLx8mdaJcXq7qZHmc-90">
          <mxGeometry y="52" width="160" height="8" as="geometry" />
        </mxCell>
        <mxCell id="5QgJLx8mdaJcXq7qZHmc-127" style="edgeStyle=orthogonalEdgeStyle;rounded=0;orthogonalLoop=1;jettySize=auto;html=1;startArrow=none;startFill=0;endArrow=none;endFill=0;" edge="1" parent="1" source="5QgJLx8mdaJcXq7qZHmc-122">
          <mxGeometry relative="1" as="geometry">
            <mxPoint x="490" y="340" as="targetPoint" />
            <Array as="points">
              <mxPoint x="610" y="83" />
              <mxPoint x="610" y="280" />
              <mxPoint x="490" y="280" />
            </Array>
          </mxGeometry>
        </mxCell>
        <mxCell id="5QgJLx8mdaJcXq7qZHmc-137" style="edgeStyle=orthogonalEdgeStyle;rounded=0;orthogonalLoop=1;jettySize=auto;html=1;entryX=1;entryY=0;entryDx=0;entryDy=0;startArrow=none;startFill=0;endArrow=none;endFill=0;" edge="1" parent="1" source="5QgJLx8mdaJcXq7qZHmc-122" target="5QgJLx8mdaJcXq7qZHmc-46">
          <mxGeometry relative="1" as="geometry">
            <Array as="points">
              <mxPoint x="740" y="40" />
              <mxPoint x="150" y="40" />
              <mxPoint x="150" y="60" />
            </Array>
          </mxGeometry>
        </mxCell>
        <mxCell id="5QgJLx8mdaJcXq7qZHmc-122" value="Review" style="swimlane;fontStyle=1;align=center;verticalAlign=top;childLayout=stackLayout;horizontal=1;startSize=26;horizontalStack=0;resizeParent=1;resizeParentMax=0;resizeLast=0;collapsible=1;marginBottom=0;" vertex="1" parent="1">
          <mxGeometry x="660" y="60" width="160" height="112" as="geometry" />
        </mxCell>
        <mxCell id="5QgJLx8mdaJcXq7qZHmc-140" value="+ sterren: int" style="text;strokeColor=none;fillColor=none;align=left;verticalAlign=top;spacingLeft=4;spacingRight=4;overflow=hidden;rotatable=0;points=[[0,0.5],[1,0.5]];portConstraint=eastwest;" vertex="1" parent="5QgJLx8mdaJcXq7qZHmc-122">
          <mxGeometry y="26" width="160" height="26" as="geometry" />
        </mxCell>
        <mxCell id="5QgJLx8mdaJcXq7qZHmc-148" value="+ Datum: int" style="text;strokeColor=none;fillColor=none;align=left;verticalAlign=top;spacingLeft=4;spacingRight=4;overflow=hidden;rotatable=0;points=[[0,0.5],[1,0.5]];portConstraint=eastwest;" vertex="1" parent="5QgJLx8mdaJcXq7qZHmc-122">
          <mxGeometry y="52" width="160" height="26" as="geometry" />
        </mxCell>
        <mxCell id="5QgJLx8mdaJcXq7qZHmc-123" value="+ content: string" style="text;strokeColor=none;fillColor=none;align=left;verticalAlign=top;spacingLeft=4;spacingRight=4;overflow=hidden;rotatable=0;points=[[0,0.5],[1,0.5]];portConstraint=eastwest;" vertex="1" parent="5QgJLx8mdaJcXq7qZHmc-122">
          <mxGeometry y="78" width="160" height="26" as="geometry" />
        </mxCell>
        <mxCell id="5QgJLx8mdaJcXq7qZHmc-124" value="" style="line;strokeWidth=1;fillColor=none;align=left;verticalAlign=middle;spacingTop=-1;spacingLeft=3;spacingRight=3;rotatable=0;labelPosition=right;points=[];portConstraint=eastwest;strokeColor=inherit;" vertex="1" parent="5QgJLx8mdaJcXq7qZHmc-122">
          <mxGeometry y="104" width="160" height="8" as="geometry" />
        </mxCell>
        <mxCell id="5QgJLx8mdaJcXq7qZHmc-136" style="edgeStyle=orthogonalEdgeStyle;rounded=0;orthogonalLoop=1;jettySize=auto;html=1;entryX=0.823;entryY=-0.01;entryDx=0;entryDy=0;entryPerimeter=0;startArrow=none;startFill=0;endArrow=diamondThin;endFill=0;" edge="1" parent="1" source="5QgJLx8mdaJcXq7qZHmc-130" target="5QgJLx8mdaJcXq7qZHmc-42">
          <mxGeometry relative="1" as="geometry" />
        </mxCell>
        <mxCell id="5QgJLx8mdaJcXq7qZHmc-130" value="Reservering" style="swimlane;fontStyle=1;align=center;verticalAlign=top;childLayout=stackLayout;horizontal=1;startSize=26;horizontalStack=0;resizeParent=1;resizeParentMax=0;resizeLast=0;collapsible=1;marginBottom=0;" vertex="1" parent="1">
          <mxGeometry x="230" y="80" width="160" height="138" as="geometry" />
        </mxCell>
        <mxCell id="5QgJLx8mdaJcXq7qZHmc-131" value="+ Prijs: int" style="text;strokeColor=none;fillColor=none;align=left;verticalAlign=top;spacingLeft=4;spacingRight=4;overflow=hidden;rotatable=0;points=[[0,0.5],[1,0.5]];portConstraint=eastwest;" vertex="1" parent="5QgJLx8mdaJcXq7qZHmc-130">
          <mxGeometry y="26" width="160" height="26" as="geometry" />
        </mxCell>
        <mxCell id="5QgJLx8mdaJcXq7qZHmc-91" value="+ Datum: int" style="text;strokeColor=none;fillColor=none;align=left;verticalAlign=top;spacingLeft=4;spacingRight=4;overflow=hidden;rotatable=0;points=[[0,0.5],[1,0.5]];portConstraint=eastwest;" vertex="1" parent="5QgJLx8mdaJcXq7qZHmc-130">
          <mxGeometry y="52" width="160" height="26" as="geometry" />
        </mxCell>
        <mxCell id="5QgJLx8mdaJcXq7qZHmc-96" value="+ Dagen: int" style="text;strokeColor=none;fillColor=none;align=left;verticalAlign=top;spacingLeft=4;spacingRight=4;overflow=hidden;rotatable=0;points=[[0,0.5],[1,0.5]];portConstraint=eastwest;" vertex="1" parent="5QgJLx8mdaJcXq7qZHmc-130">
          <mxGeometry y="78" width="160" height="26" as="geometry" />
        </mxCell>
        <mxCell id="5QgJLx8mdaJcXq7qZHmc-151" value="+ Betal Methode: string" style="text;strokeColor=none;fillColor=none;align=left;verticalAlign=top;spacingLeft=4;spacingRight=4;overflow=hidden;rotatable=0;points=[[0,0.5],[1,0.5]];portConstraint=eastwest;" vertex="1" parent="5QgJLx8mdaJcXq7qZHmc-130">
          <mxGeometry y="104" width="160" height="26" as="geometry" />
        </mxCell>
        <mxCell id="5QgJLx8mdaJcXq7qZHmc-132" value="" style="line;strokeWidth=1;fillColor=none;align=left;verticalAlign=middle;spacingTop=-1;spacingLeft=3;spacingRight=3;rotatable=0;labelPosition=right;points=[];portConstraint=eastwest;strokeColor=inherit;" vertex="1" parent="5QgJLx8mdaJcXq7qZHmc-130">
          <mxGeometry y="130" width="160" height="8" as="geometry" />
        </mxCell>
        <mxCell id="5QgJLx8mdaJcXq7qZHmc-138" style="edgeStyle=orthogonalEdgeStyle;rounded=0;orthogonalLoop=1;jettySize=auto;html=1;entryX=1;entryY=0.5;entryDx=0;entryDy=0;startArrow=none;startFill=0;endArrow=none;endFill=0;" edge="1" parent="1" source="5QgJLx8mdaJcXq7qZHmc-123" target="5QgJLx8mdaJcXq7qZHmc-91">
          <mxGeometry relative="1" as="geometry">
            <Array as="points">
              <mxPoint x="525" y="151" />
              <mxPoint x="390" y="150" />
            </Array>
          </mxGeometry>
        </mxCell>
      </root>
    </mxGraphModel>
  </diagram>
</mxfile>
